{"title":"The Pacific (2010)  1080p  - (Episode 3)","uid":8809680,"size":2402150439,"categoryP":"video","categoryS":"hd___tv_shows","magnet":"?xt=urn:btih:26f52f06bfce9e424fc4fc2273cd879d1cd36939&amp;dn=The+Pacific+%282010%29++1080p++-+%28Episode+3%29&amp;tr=udp%3A%2F%2Ftracker.openbittorrent.com%3A80&amp;tr=udp%3A%2F%2Fopen.demonii.com%3A1337&amp;tr=udp%3A%2F%2Ftracker.coppersurfer.tk%3A6969&amp;tr=udp%3A%2F%2Fexodus.desync.com%3A6969","seeders":2,"leechers":1,"uploader":"molpol","files":-1,"time":1376427173,"description":"\n\nThe Pacific (2010) \n\n\nEpisode 3: Melbourne\n\nAfter arduous months in Guadalcanal, exhausted marines are given rest and recreation in Melbourne, where they find the girls friendly and the beer cold.\n\n\nMedia Info:\n\nFormat                                   : Matroska\nFormat version                           : Version 4 / Version 2\nFile size                                : 2.24 GiB\nDuration                                 : 56mn 18s\nOverall bit rate                         : 5 685 Kbps\nMovie name                               : PACIFIC_DISC2.Title801.BlurayRip\nEncoded date                             : UTC 2013-07-23 21:26:56\nWriting application                      : mkvmerge v6.1.0 ('Old Devil') built on Mar  2 2013 22:22:31\nWriting library                          : libebml v1.3.0 + libmatroska v1.4.0\n\nVideo\nID                                       : 1\nFormat                                   : AVC\nFormat/Info                              : Advanced Video Codec\nFormat profile                           : &lt;a class=&quot;__cf_email__&quot; href=&quot;/cdn-cgi/l/email-protection&quot; data-cfemail=&quot;c48cada3ac8488f0eaf5&quot;&gt;[email&amp;#160;protected]&lt;/a&gt;&lt;script cf-hash='f9e31' type=&quot;text/javascript&quot;&gt;\n/* &lt;![CDATA[ */!function(){try{var t=&quot;currentScript&quot;in document?document.currentScript:function(){for(var t=document.getElementsByTagName(&quot;script&quot;),e=t.length;e--;)if(t[e].getAttribute(&quot;cf-hash&quot;))return t[e]}();if(t&amp;&amp;t.previousSibling){var e,r,n,i,c=t.previousSibling,a=c.getAttribute(&quot;data-cfemail&quot;);if(a){for(e=&quot;&quot;,r=parseInt(a.substr(0,2),16),n=2;a.length-n;n+=2)i=parseInt(a.substr(n,2),16)^r,e+=String.fromCharCode(i);e=document.createTextNode(e),c.parentNode.replaceChild(e,c)}}}catch(u){}}();/* ]]&gt; */&lt;/script&gt;\nFormat settings, CABAC                   : Yes\nFormat settings, ReFrames                : 2 frames\nCodec ID                                 : V_MPEG4/ISO/AVC\nDuration                                 : 56mn 18s\nBit rate                                 : 4 676 Kbps\nWidth                                    : 1 920 pixels\nHeight                                   : 1 080 pixels\nDisplay aspect ratio                     : 16:9\nFrame rate mode                          : Constant\nFrame rate                               : 23.976 fps\nColor space                              : YUV\nChroma subsampling                       : 4:2:0\nBit depth                                : 8 bits\nScan type                                : Progressive\nBits/(Pixel*Frame)                       : 0.094\nStream size                              : 1.84 GiB (82%)\nWriting library                          : x264 core\nDefault                                  : Yes\nForced                                   : No\nColor primaries                          : BT.709\nTransfer characteristics                 : BT.709\nMatrix coefficients                      : BT.709\n\nAudio #1\nID                                       : 2\nFormat                                   : DTS\nFormat/Info                              : Digital Theater Systems\nMode                                     : 16\nFormat settings, Endianness              : Big\nCodec ID                                 : A_DTS\nDuration                                 : 56mn 18s\nBit rate mode                            : Constant\nBit rate                                 : 768 Kbps\nChannel(s)                               : 2 channels\nChannel positions                        : Front: L R\nSampling rate                            : 48.0 KHz\nBit depth                                : 16 bits\nCompression mode                         : Lossy\nStream size                              : 309 MiB (14%)\nLanguage                                 : Latin Spanish\nDefault                                  : Yes\nForced                                   : No\n\nAudio #2\nID                                       : 3\nFormat                                   : AC-3\nFormat/Info                              : Audio Coding 3\nMode extension                           : CM (complete main)\nFormat settings, Endianness              : Big\nCodec ID                                 : A_AC3\nDuration                                 : 56mn 18s\nBit rate mode                            : Constant\nBit rate                                 : 128 Kbps\nChannel(s)                               : 2 channels\nChannel positions                        : Front: L R\nSampling rate                            : 48.0 KHz\nBit depth                                : 16 bits\nCompression mode                         : Lossy\nStream size                              : 51.6 MiB (2%)\nLanguage                                 : English\nDefault                                  : No\nForced                                   : No\n\nText\nID                                       : 4\nFormat                                   : PGS\nMuxing mode                              : zlib\nCodec ID                                 : S_HDMV/PGS\nCodec ID/Info                            : The same subtitle format used on BDs/HD-DVDs\nLanguage                                 : Spanish\nDefault                                  : No\nForced                                   : No\n\nMenu\n00:00:00.000                             : en:(01)00:00:00:000\n00:02:52.547                             : en:(02)00:02:52:547\n00:11:23.599                             : en:(03)00:11:23:599\n00:19:09.857                             : en:(04)00:19:09:857\n00:31:27.927                             : en:(05)00:31:27:927\n00:37:16.234                             : en:(06)00:37:16:234\n00:45:41.864                             : en:(07)00:45:41:864\n00:52:06.123                             : en:(08)00:52:06:123\n00:56:18.583                             : en:(09)00:56:18:583\n","torrent":{"xt":"urn:btih:26f52f06bfce9e424fc4fc2273cd879d1cd36939","amp;dn":"The+Pacific+%282010%29++1080p++-+%28Episode+3%29","amp;tr":["udp%3A%2F%2Ftracker.openbittorrent.com%3A80","udp%3A%2F%2Fopen.demonii.com%3A1337","udp%3A%2F%2Ftracker.coppersurfer.tk%3A6969","udp%3A%2F%2Fexodus.desync.com%3A6969"],"infoHash":"26f52f06bfce9e424fc4fc2273cd879d1cd36939","infoHashBuffer":{"type":"Buffer","data":[38,245,47,6,191,206,158,66,79,196,252,34,115,205,135,157,28,211,105,57]},"announce":[],"urlList":[]}}